<svg width="21" height="21" viewBox="0 0 21 21" fill="none" xmlns="http://www.w3.org/2000/svg">
<g clip-path="url(#clip0_2_57)">
<path d="M19.7737 3.30718C18.9757 3.87008 18.0921 4.3006 17.1571 4.58218C16.6552 4.0051 15.9882 3.59609 15.2463 3.41045C14.5043 3.22481 13.7233 3.27151 13.0088 3.54422C12.2943 3.81694 11.6808 4.30251 11.2512 4.93527C10.8217 5.56804 10.5968 6.31746 10.6071 7.08218V7.91551C9.14259 7.95348 7.69145 7.62869 6.3829 6.97005C5.07434 6.31141 3.94899 5.33937 3.10706 4.14051C3.10706 4.14051 -0.226275 11.6405 7.27373 14.9738C5.5575 16.1388 3.51302 16.723 1.44039 16.6405C8.94039 20.8072 18.1071 16.6405 18.1071 7.05718C18.1063 6.82506 18.084 6.59351 18.0404 6.36551C18.8909 5.52676 19.4911 4.46777 19.7737 3.30718Z" stroke="white" stroke-width="2" stroke-linecap="round" stroke-linejoin="round"/>
</g>
<defs>
<clipPath id="clip0_2_57">
<rect width="20" height="20" fill="white" transform="translate(0.607056 0.80719)"/>
</clipPath>
</defs>
</svg>
